<svg height="448pt" viewBox="0 -144 448 448" width="448pt" xmlns="http://www.w3.org/2000/svg"><path d="m448 0h-448v14.121094c5.085938 4.550781 7.992188 11.054687 7.992188 17.878906s-2.90625 13.328125-7.992188 17.878906v78.121094h448v-78.121094c-5.085938-4.550781-7.992188-11.054687-7.992188-17.878906s2.90625-13.328125 7.992188-17.878906zm-352 104c0 4.417969-3.582031 8-8 8h-48c-4.417969 0-8-3.582031-8-8v-80c0-4.417969 3.582031-8 8-8h48c4.417969 0 8 3.582031 8 8zm80 0c0 4.417969-3.582031 8-8 8h-48c-4.417969 0-8-3.582031-8-8v-80c0-4.417969 3.582031-8 8-8h48c4.417969 0 8 3.582031 8 8zm80 0c0 4.417969-3.582031 8-8 8h-48c-4.417969 0-8-3.582031-8-8v-80c0-4.417969 3.582031-8 8-8h48c4.417969 0 8 3.582031 8 8zm80 0c0 4.417969-3.582031 8-8 8h-48c-4.417969 0-8-3.582031-8-8v-80c0-4.417969 3.582031-8 8-8h48c4.417969 0 8 3.582031 8 8zm80 0c0 4.417969-3.582031 8-8 8h-48c-4.417969 0-8-3.582031-8-8v-80c0-4.417969 3.582031-8 8-8h48c4.417969 0 8 3.582031 8 8zm0 0"/><path d="m424 144h24v16h-24zm0 0"/><path d="m328 144h16v16h-16zm0 0"/><path d="m360 144h16v16h-16zm0 0"/><path d="m392 144h16v16h-16zm0 0"/><path d="m128 32h32v64h-32zm0 0"/><path d="m368 32h32v64h-32zm0 0"/><path d="m48 32h32v64h-32zm0 0"/><path d="m288 32h32v64h-32zm0 0"/><path d="m208 32h32v64h-32zm0 0"/><path d="m296 144h16v16h-16zm0 0"/><path d="m104 144h16v16h-16zm0 0"/><path d="m0 144h24v16h-24zm0 0"/><path d="m40 144h16v16h-16zm0 0"/><path d="m136 144h16v16h-16zm0 0"/><path d="m72 144h16v16h-16zm0 0"/><path d="m232 144h16v16h-16zm0 0"/><path d="m264 144h16v16h-16zm0 0"/><path d="m200 144h16v16h-16zm0 0"/><path d="m168 144h16v16h-16zm0 0"/></svg>